<?xml version="1.0" encoding="UTF-8" standalone="no"?>
<!-- Created with Inkscape (http://www.inkscape.org/) -->

<svg
   width="147.95268"
   height="67.600883"
   viewBox="0 0 39.145814 17.886067"
   version="1.1"
   id="svg5"
   xml:space="preserve"
   inkscape:version="1.2.1 (9c6d41e, 2022-07-14)"
   sodipodi:docname="mockup.svg"
   xmlns:inkscape="http://www.inkscape.org/namespaces/inkscape"
   xmlns:sodipodi="http://sodipodi.sourceforge.net/DTD/sodipodi-0.dtd"
   xmlns="http://www.w3.org/2000/svg"
   xmlns:svg="http://www.w3.org/2000/svg"><sodipodi:namedview
     id="namedview7"
     pagecolor="#ffffff"
     bordercolor="#000000"
     borderopacity="0.25"
     inkscape:showpageshadow="2"
     inkscape:pageopacity="0.0"
     inkscape:pagecheckerboard="0"
     inkscape:deskcolor="#d1d1d1"
     inkscape:document-units="mm"
     showgrid="false"
     inkscape:zoom="0.53240502"
     inkscape:cx="2714.0991"
     inkscape:cy="703.41185"
     inkscape:window-width="1280"
     inkscape:window-height="1027"
     inkscape:window-x="1680"
     inkscape:window-y="25"
     inkscape:window-maximized="0"
     inkscape:current-layer="layer6"
     showguides="false" /><defs
     id="defs2" /><g
     inkscape:groupmode="layer"
     id="layer2"
     inkscape:label="Fonemas"
     transform="translate(-411.4776,-56.867405)"><path
       style="fill:#ffcc00;fill-opacity:1;stroke:#ffcc00;stroke-width:2.19445;stroke-dasharray:none;stroke-opacity:1;paint-order:markers fill stroke"
       id="path17598"
       d="m 416.65558,73.656249 c 3.664,-3.530581 7.65723,-6.712487 11.7588,-9.718341 1.57284,-1.064364 3.08903,-2.227109 4.76038,-3.13916 0.16907,-0.09226 0.95104,-0.529778 1.29109,-0.481867 0.0705,0.0099 0.0736,0.121992 0.11043,0.182986 -1.12633,-0.629462 -2.19077,-1.38544 -3.37902,-1.888387 -0.13017,-0.0551 -0.12919,0.251791 -0.20365,0.371938 -0.0895,0.144373 -0.19206,0.280183 -0.28752,0.420664 -0.35626,0.524264 -0.72228,1.037129 -1.10212,1.544608 -0.50625,0.600837 -0.89778,1.267323 -1.07397,2.034127 -0.0341,0.551138 -0.0932,1.060919 -0.2749,1.581174 -0.10049,0.4298 -0.24964,0.811546 -0.45413,1.200746 -0.21048,0.45195 -0.27112,0.941622 -0.31052,1.432496 -0.0277,0.591939 -0.0177,1.184749 -0.0193,1.777108 0.0539,0.5445 -0.12597,1.069986 -0.0517,1.610694 1.29947,4.811437 5.29471,0.907174 6.76423,-0.192897 2.75045,-2.048648 5.56437,-4.004043 8.26542,-6.119347 1.48918,-1.264523 3.17646,-2.210025 4.85958,-3.170412 1.31119,-0.527799 3.53092,1.279218 -2.8049,-1.877499 -0.0518,-0.02582 0.0526,0.105883 0.0587,0.163454 0.0164,0.155977 -0.0322,0.758113 -0.0385,0.853419 -0.0481,0.980641 -0.23308,1.958072 -0.0809,2.934991 0.0387,0.118118 0.0774,0.236236 0.11608,0.354354 0,0 3.59701,1.658043 3.59701,1.658043 v 0 c -0.0496,-0.09469 -0.0991,-0.189378 -0.14873,-0.284067 -0.23354,-0.937747 -0.0509,-1.891631 0.0143,-2.844406 0.006,-0.06451 0.19368,-1.163204 0.11586,-1.217737 -2.42908,-1.701816 -2.5051,-2.733093 -4.13419,-1.886987 -1.67362,0.978955 -3.27999,2.048946 -4.78192,3.283799 -2.70775,2.101517 -5.47831,4.111993 -8.27146,6.09818 -0.0153,0.01061 -1.78345,1.236599 -2.0347,1.402914 -0.19746,0.130698 -0.39351,0.264596 -0.601,0.378722 -0.13173,0.07247 -0.5353,0.09092 -0.41381,0.179501 2.84996,2.078077 4.50575,1.533816 3.13246,1.953027 -0.35536,-0.329941 0.10752,-1.041987 -0.0285,-1.478264 -0.003,-0.583015 -0.004,-1.166363 0.0145,-1.749134 0.0228,-0.438158 0.0554,-0.879671 0.23384,-1.287071 0.21048,-0.408286 0.3928,-0.797581 0.47877,-1.252368 0.18857,-0.539224 0.30884,-1.051518 0.29659,-1.629267 0.1297,-0.7214 0.50049,-1.335355 0.95653,-1.903791 0.48215,-0.658313 0.98231,-1.310135 1.42557,-1.995805 0.0972,-0.150328 0.405,-0.334343 0.27736,-0.459846 -0.96623,-0.95005 -2.16061,-1.636038 -3.2409,-2.454058 -0.56489,0.116446 -1.0064,0.367371 -1.50141,0.673481 -1.60777,0.994235 -3.09811,2.161315 -4.63785,3.253986 -4.10835,3.066783 -8.11506,6.28047 -11.98153,9.645941 0,0 3.32957,2.040358 3.32957,2.040358 z" /></g></svg>
